# xmcd
# 
# Track frame offsets:
#     150
#     19062
#     30648
#     47320
#     60413
#     77904
#     91096
#     103706
#     114433
#     126938
#     136534
#     149369
#     165005
#     177992
#     195567
#     210821
#     229195
#     243256
#     261235
#     276649
# 
# Disc length: 3853
# 
# Revision: 2
# Processed by: cddbd v1.5.2PL0 Copyright (c) Steve Scherf et al.
# Submitted via: fre:ac v1.0.17
# 
DISCID=010f0b14
DTITLE=Various Artist - 100 Hits - Classic Country [Box-Set] [CD 2)
DYEAR=2012
DGENRE=Country
TTITLE0=Juice Newton - Angel Of The Morning (Single Version)
TTITLE1=Bobbie Gentry and Glen Campbell - All I Have To Do Is Dream
TTITLE2=Anne Murray - You Needed Me
TTITLE3=Dr Hook - A Little Bit More
TTITLE4=Kenny Rogers - Lady
TTITLE5=Crystal Gayle - Talking In Your Sleep
TTITLE6=Wanda Jackson - Funny How Time Slips Away
TTITLE7=Slim Whitman - Rose Marie
TTITLE8=Faron Young - Sweet Dreams
TTITLE9=The Louvin Brothers - I Don't Believe You've Met My Baby
TTITLE10=Billie Jo Spears - 57 Chevrolet
TTITLE11=Don Williams - Then It's Love
TTITLE12=Barbara Mandrell - I Wish That I Could Fall In Love Today
TTITLE13=Gail Davies - The Other Side Of Love
TTITLE14=Eddy Raven - In A Letter To You
TTITLE15=Susan Ashton - Think Of Me
TTITLE16=Lacy J Dalton - Still Crazy After All These Years
TTITLE17=Eddie Rabbitt And Crystal Gayle - You And I
TTITLE18=Billy 'Crash' Craddock - If I Could Write A Song As Beautiful As You
TTITLE19=Roy Rogers - Happy Anniversary
EXTD=
EXTT0=
EXTT1=
EXTT2=
EXTT3=
EXTT4=
EXTT5=
EXTT6=
EXTT7=
EXTT8=
EXTT9=
EXTT10=
EXTT11=
EXTT12=
EXTT13=
EXTT14=
EXTT15=
EXTT16=
EXTT17=
EXTT18=
EXTT19=
PLAYORDER=
